<?xml version="1.0" standalone="no"?>
<!DOCTYPE svg PUBLIC "-//W3C//DTD SVG 20010904//EN"
 "http://www.w3.org/TR/2001/REC-SVG-20010904/DTD/svg10.dtd">
<svg version="1.0" xmlns="http://www.w3.org/2000/svg"
 width="436.000000pt" height="436.000000pt" viewBox="0 0 436.000000 436.000000"
 preserveAspectRatio="xMidYMid meet">
<metadata>
Created by potrace 1.11, written by Peter Selinger 2001-2013
</metadata>
<g transform="translate(0.000000,436.000000) scale(0.100000,-0.100000)"
fill="#000000" stroke="none">
<path d="M2250 3261 l0 -1042 70 60 c99 85 150 109 273 126 l47 6 0 178 0 178
273 8 c285 7 302 6 417 -36 80 -29 137 -65 201 -126 103 -97 149 -236 149
-443 l0 -110 195 0 195 0 0 75 c0 349 -111 629 -308 777 l-60 45 61 44 c193
141 307 426 307 772 l0 77 -194 0 -193 0 -6 -117 c-14 -273 -118 -469 -294
-555 l-68 -33 -337 -3 -336 -3 -4 413 c-4 352 -7 422 -22 473 -50 175 -145
261 -298 273 l-68 5 0 -1042z"/>
<path d="M995 3844 c-327 -72 -580 -310 -682 -641 -24 -79 -27 -104 -27 -243
-1 -132 3 -167 22 -233 105 -366 400 -620 772 -667 48 -5 285 -10 548 -10
l463 0 -3 528 c-4 511 -5 529 -26 607 -52 184 -171 365 -312 478 -80 64 -241
147 -335 172 -87 24 -329 29 -420 9z m314 -369 c182 -48 328 -196 376 -382 12
-45 15 -125 15 -366 l0 -309 -307 4 c-300 4 -310 5 -375 30 -178 67 -292 194
-338 374 -23 87 -25 144 -9 230 37 202 187 366 382 419 68 18 188 18 256 0z"/>
<path d="M2533 2275 c-106 -33 -205 -123 -244 -223 -21 -52 -23 -75 -23 -267
l-1 -210 50 3 c111 7 230 94 288 211 l32 65 3 218 4 218 -34 -1 c-18 0 -52 -6
-75 -14z"/>
<path d="M1082 1889 c-203 -24 -381 -108 -529 -252 -115 -111 -192 -237 -240
-394 -24 -80 -27 -103 -27 -253 -1 -154 1 -171 28 -255 91 -288 296 -506 564
-600 402 -140 836 9 1070 368 50 77 86 159 119 272 15 53 18 123 21 593 l3
532 -468 -1 c-257 -1 -501 -5 -541 -10z m618 -666 c0 -227 -4 -313 -15 -361
-56 -236 -262 -402 -499 -402 -146 0 -263 48 -363 147 -110 110 -174 283 -157
428 8 78 37 168 71 228 38 65 133 158 196 193 106 57 144 63 470 63 l297 1 0
-297z"/>
<path d="M3680 1335 c0 -300 1 -545 3 -545 2 0 30 5 62 11 158 29 275 146 304
304 7 35 11 201 11 417 l0 358 -190 0 -190 0 0 -545z"/>
<path d="M2590 1581 c-58 -60 -151 -106 -245 -122 l-75 -13 0 -694 0 -695 44
6 c166 23 295 147 325 311 13 68 16 1257 4 1255 -5 -1 -28 -22 -53 -48z"/>
</g>
</svg>
